<svg xmlns="http://www.w3.org/2000/svg" viewBox="0 0 512 512" width="512" height="512">
  <!-- Background -->
  <rect width="512" height="512" fill="#f4f1ea"/>
  
  <!-- Cloud -->
  <path d="M256 180c-40 0-72 32-72 72 0 4-4 8-8 8h-16c-32 0-56 24-56 56s24 56 56 56h256c32 0 56-24 56-56s-24-56-56-56h-16c-4 0-8-4-8-8 0-40-32-72-72-72z" fill="#1a1a1a"/>
  
  <!-- Sun rays -->
  <circle cx="380" cy="140" r="40" fill="#1a1a1a"/>
  <line x1="380" y1="60" x2="380" y2="80" stroke="#1a1a1a" stroke-width="12"/>
  <line x1="380" y1="200" x2="380" y2="220" stroke="#1a1a1a" stroke-width="12"/>
  <line x1="460" y1="140" x2="440" y2="140" stroke="#1a1a1a" stroke-width="12"/>
  <line x1="320" y1="140" x2="300" y2="140" stroke="#1a1a1a" stroke-width="12"/>
  <line x1="432" y1="92" x2="418" y2="106" stroke="#1a1a1a" stroke-width="12"/>
  <line x1="328" y1="174" x2="342" y2="160" stroke="#1a1a1a" stroke-width="12"/>
  <line x1="432" y1="188" x2="418" y2="174" stroke="#1a1a1a" stroke-width="12"/>
  <line x1="328" y1="106" x2="342" y2="120" stroke="#1a1a1a" stroke-width="12"/>
</svg>
